
<svg version="1.1" x="0px" y="0px"
	 viewBox="0 0 881.019 596.312" style="enable-background:new 0 0 881.019 596.312;" xml:space="preserve">
<style type="text/css">
	.st0{fill:none;stroke:#FFFFFF;stroke-miterlimit:10;}
	.st1{fill:#FFFFFF;}
</style>
<g>
	<image style="overflow:visible;" width="596" height="570" xlink:href="head.png"  transform="matrix(1 0 0 1 250.516 26.3118)">
	</image>
	<polyline class="st0" points="711.468,148.935 740.599,239.823 711,351.157 629.934,396.231 	"/>
	<line class="st0" x1="580.333" y1="259.49" x2="684.685" y2="365.789"/>
	<line class="st0" x1="658.958" y1="466.282" x2="684.685" y2="365.789"/>
	<line class="st0" x1="740.599" y1="239.823" x2="876.708" y2="239.823"/>
	<polyline class="st0" points="563.208,52.032 705.333,48.157 737.583,100.907 672.333,220.907 	"/>
	<polyline class="st0" points="440,155.823 511.667,0.657 737.583,100.907 	"/>
	<polyline class="st0" points="408.41,229.339 360.667,111.49 480.531,68.069 	"/>
	<polyline class="st0" points="410.333,173.823 6.333,122.157 425.667,109.157 	"/>
	<polyline class="st0" points="453.333,495.407 443.083,400.157 410.833,367.657 	"/>
	<path class="st1" d="M14.865,99.616c0.002-0.036,0.01-0.07,0.01-0.107c0-0.037-0.008-0.071-0.01-0.107l8.043-3.873l2.04,8.943
		l-10.082-4.855L14.865,99.616z M3.758,95.529l8.043,3.873c-0.002,0.036-0.01,0.07-0.01,0.107c0,0.037,0.008,0.071,0.01,0.107
		l-10.083,4.856C1.718,104.472,3.758,95.529,3.758,95.529z M26.318,105.369l-2.46-10.788c-0.071-0.307-0.378-0.497-0.684-0.426
		c-0.04,0.009-0.079,0.023-0.117,0.041l-8.684,4.181c-0.283-0.263-0.654-0.409-1.04-0.41c-0.403,0-0.766,0.158-1.041,0.41
		l-8.682-4.18c-0.284-0.135-0.624-0.015-0.76,0.269c-0.017,0.037-0.031,0.075-0.04,0.115l-2.464,10.788
		c-0.069,0.307,0.125,0.612,0.432,0.68c0.124,0.028,0.254,0.013,0.369-0.041l11.144-5.367c0.275,0.252,0.638,0.41,1.041,0.41
		c0.386,0,0.758-0.147,1.041-0.41l11.145,5.367c0.197,0.094,0.429,0.067,0.6-0.068C26.289,105.804,26.367,105.582,26.318,105.369
		L26.318,105.369z"/>
	<circle class="st1" cx="6.833" cy="122.323" r="6.833"/>
	<circle class="st1" cx="360.667" cy="110.657" r="6.833"/>
	<circle class="st1" cx="735" cy="101.907" r="6.833"/>
	<circle class="st1" cx="411.182" cy="367.657" r="4.266"/>
	<circle class="st1" cx="580.174" cy="259.328" r="4.266"/>
	<circle class="st1" cx="876.708" cy="239.823" r="4.266"/>
	<path class="st1" d="M754.655,105.818l9.179-4.42l9.179,4.42H754.655L754.655,105.818z M775.537,105.87l-10.495-5.054l7.034-3.387
		c0.253,0.233,0.589,0.38,0.96,0.38c0.786,0.001,1.424-0.637,1.425-1.423c0.001-0.786-0.637-1.424-1.423-1.425
		s-1.424,0.637-1.425,1.423c0,0,0,0.001,0,0.001c0,0.033,0.007,0.065,0.01,0.098l-7.79,3.751l-8.057-3.88
		c-0.008-0.786-0.652-1.416-1.438-1.408c-0.786,0.008-1.416,0.652-1.407,1.438c0,0.787,0.638,1.425,1.424,1.425
		c0.418,0,0.79-0.183,1.05-0.47l7.22,3.477l-10.493,5.054c-0.261,0.127-0.369,0.441-0.242,0.702c0.087,0.18,0.269,0.294,0.469,0.295
		h22.952c0.289,0.001,0.525-0.233,0.526-0.522C775.837,106.142,775.721,105.957,775.537,105.87L775.537,105.87z"/>
	<path class="st1" d="M872.703,224.811l-6.37-7.988h12.74C879.073,216.823,872.703,224.811,872.703,224.811z M880.957,215.916
		c-0.106-0.219-0.327-0.358-0.57-0.358h-15.064l-8.4-10.534c0.144-0.251,0.233-0.538,0.233-0.848c0-0.949-0.769-1.718-1.718-1.718
		c-0.949,0-1.718,0.769-1.718,1.718s0.769,1.718,1.718,1.718c0.173,0,0.338-0.033,0.496-0.082l7.77,9.746h-9.412
		c-0.345-0.883-1.341-1.318-2.223-0.973c-0.66,0.258-1.093,0.896-1.091,1.605c-0.347,0.882,0.087,1.878,0.969,2.225
		c0.882,0.347,1.878-0.087,2.225-0.969c0.078-0.198,0.118-0.41,0.119-0.623h10.424l7.494,9.397c0.219,0.273,0.618,0.317,0.891,0.098
		c0.036-0.029,0.069-0.062,0.098-0.098l7.684-9.635c0.15-0.19,0.18-0.45,0.075-0.67V215.916z"/>
</g>
</svg>
