<svg xmlns="http://www.w3.org/2000/svg" viewBox="0 0 30 21.61"><defs><style>.cls-1{fill:#95c11e;}</style></defs><title>Ресурс 5</title><g id="Слой_2" data-name="Слой 2"><g id="Слой_1-2" data-name="Слой 1"><path class="cls-1" d="M7.94,10.12,15,15.5l7.05-5.4.12.11,7.67,7.58a.43.43,0,0,1,.14.34c0,.7,0,1.4,0,2.1a1.26,1.26,0,0,1-1.3,1.32H25.65l-18.39,0H1.46a1.4,1.4,0,0,1-1.14-.47A1.22,1.22,0,0,1,0,20.31c0-.74,0-1.47,0-2.21a.32.32,0,0,1,.08-.2l7.77-7.73Z"/><path class="cls-1" d="M30,15,23.74,8.81,30,4Z"/><path class="cls-1" d="M0,15V4.09L6.2,8.79.08,15Z"/><path class="cls-1" d="M29.93,1a1.27,1.27,0,0,0-1.32-1H23.68L3.08,0C2.46,0,1.84,0,1.23,0A1.26,1.26,0,0,0,0,1a5.32,5.32,0,0,0,0,.61.34.34,0,0,0,.17.34l13.1,10L15,13.23l.15-.11L25.22,5.41l4.61-3.54c.05,0,.12-.1.13-.16A3.36,3.36,0,0,0,29.93,1Z"/></g></g></svg>