<svg xmlns="http://www.w3.org/2000/svg" viewBox="0 0 30 30.84"><defs><style>.cls-1{fill:#95c11e;}</style></defs><title>Ресурс 3</title><g id="Слой_2" data-name="Слой 2"><g id="Слой_1-2" data-name="Слой 1"><path class="cls-1" d="M0,10.28A9.89,9.89,0,0,1,2.63,3.44,8.79,8.79,0,0,1,4.51,1.76a3,3,0,0,1,1.74-.53,1.85,1.85,0,0,1,1.29.61,15.45,15.45,0,0,1,3,4.44,5.23,5.23,0,0,1,.42,1.63A2.44,2.44,0,0,1,10,10.13c-.64.52-1.27,1-1.92,1.55A2.36,2.36,0,0,0,7.3,14.5a9.17,9.17,0,0,0,1.08,2.1,22.93,22.93,0,0,0,4.5,5.1,7.59,7.59,0,0,0,1.31,1,3,3,0,0,0,1.83.42,2.45,2.45,0,0,0,1.46-.75c.29-.3.55-.62.84-.91a4.51,4.51,0,0,1,2.12-1.24,2.82,2.82,0,0,1,2.32.4,24.81,24.81,0,0,1,3.81,3.11,3.1,3.1,0,0,1,.9,1.53,1.84,1.84,0,0,1-.4,1.61,11,11,0,0,1-4.21,3.22,9,9,0,0,1-4.37.74,11.86,11.86,0,0,1-3.07-.73,17.36,17.36,0,0,1-6.26-3.88A52.72,52.72,0,0,1,3,19.07a19,19,0,0,1-1.52-2.81,14.69,14.69,0,0,1-1.26-3.7A12.25,12.25,0,0,1,0,10.28Z"/><path class="cls-1" d="M27.17,13.37a10,10,0,0,0-1.23-5.31,8.4,8.4,0,0,0-2.33-2.77,11,11,0,0,0-4.19-2.06c-.55-.14-1.11-.2-1.67-.31a1.53,1.53,0,0,1-1.18-1.16A1.46,1.46,0,0,1,18.28,0,16.5,16.5,0,0,1,22.86,1.5a11.74,11.74,0,0,1,2.61,1.83,16.28,16.28,0,0,1,2.06,2.3,12.09,12.09,0,0,1,2,4.3A11.6,11.6,0,0,1,30,12.84a5.76,5.76,0,0,1-.4,2.07.91.91,0,0,1-.5.53,1.69,1.69,0,0,1-1.19.08,1,1,0,0,1-.69-.95C27.17,14.12,27.18,13.66,27.17,13.37Z"/><path class="cls-1" d="M24.35,14a7.86,7.86,0,0,1-.15,1,1.24,1.24,0,0,1-1.35,1c-.71-.15-1-.34-1.12-1s-.08-1.05-.12-1.58A5.41,5.41,0,0,0,20,9.86a5.2,5.2,0,0,0-3.29-1.49,2.73,2.73,0,0,1-.46-.08,1.27,1.27,0,0,1-1-1.33,1.3,1.3,0,0,1,1.15-1.19,4,4,0,0,1,1.26.09,9.36,9.36,0,0,1,3.57,1.68,8,8,0,0,1,2.47,3.54,8.72,8.72,0,0,1,.6,2.28c0,.23,0,.46,0,.68Z"/></g></g></svg>