<?xml version="1.0" encoding="utf-8"?>
<!-- Generator: Adobe Illustrator 21.1.0, SVG Export Plug-In . SVG Version: 6.00 Build 0)  -->
<svg version="1.1" id="Слой_1" xmlns="http://www.w3.org/2000/svg" xmlns:xlink="http://www.w3.org/1999/xlink" x="0px" y="0px"
	 viewBox="0 0 367.7 371.9" style="enable-background:new 0 0 367.7 371.9;" xml:space="preserve">
<style type="text/css">
	.st0{fill:#DADADA;}
	.st1{fill:#FFFFFF;}
	.st2{fill:#C6C6C6;}
	.st3{fill:#95C11E;}
	.st4{fill:#878787;}
	.st5{fill:#B2B2B2;}
</style>
<g>
	<g>
		<rect x="137.9" y="195.6" class="st0" width="188.8" height="113.5"/>
		<rect x="139.9" y="197.6" class="st1" width="184.8" height="109.5"/>
		<polygon class="st1" points="258,362.1 206.6,362.1 210.1,333.6 254.5,333.6 		"/>
		<path class="st2" d="M282.8,371.6h-101c-0.6,0-1-0.4-1-1v-8.4c0-0.6,0.4-1,1-1h101c0.6,0,1,0.4,1,1v8.4
			C283.8,371.1,283.4,371.6,282.8,371.6z M182.8,369.6h99v-6.4h-99V369.6z"/>
		<rect x="137.9" y="195.6" class="st0" width="188.8" height="14"/>
		<path class="st2" d="M316.3,203.6H187.6c-0.6,0-1-0.4-1-1s0.4-1,1-1h128.7c0.6,0,1,0.4,1,1S316.9,203.6,316.3,203.6z"/>
		<path class="st3" d="M336.6,181H128c-3.3,0-5.9,2.7-5.9,6v144.6c0,3.3,2.7,6,5.9,6h208.6c3.3,0,5.9-2.7,5.9-6V187.1
			C342.6,183.7,339.9,181,336.6,181z M232.3,330.1c-2.8,0-5.1-2.3-5.1-5.2c0-2.9,2.3-5.2,5.1-5.2c2.8,0,5.1,2.3,5.1,5.2
			C237.5,327.8,235.2,330.1,232.3,330.1z M332.8,311.9c0,1.2-0.9,2.1-2.1,2.1H133.9c-1.2,0-2.1-0.9-2.1-2.1V206.8v-14.7
			c0-1.2,0.9-2.1,2.1-2.1h40.6h156.2c1.2,0,2.1,0.9,2.1,2.1V311.9z"/>
		<g>
			<rect x="146.8" y="200.8" class="st3" width="3.7" height="3.7"/>
			<rect x="155.7" y="200.8" class="st4" width="3.7" height="3.7"/>
			<rect x="164.5" y="200.8" class="st3" width="3.6" height="3.7"/>
		</g>
		<rect x="150.5" y="222.3" class="st4" width="45.2" height="45.2"/>
		<g>
			<path class="st2" d="M254.9,268.4h-4.3c-0.6,0-1-0.4-1-1s0.4-1,1-1h3.3v-3.3c0-0.6,0.4-1,1-1s1,0.4,1,1v4.3
				C255.9,268,255.4,268.4,254.9,268.4z"/>
			<path class="st2" d="M243.3,268.4H233c-0.6,0-1-0.4-1-1s0.4-1,1-1h10.3c0.6,0,1,0.4,1,1S243.8,268.4,243.3,268.4z M222.7,268.4
				h-5.1c-0.6,0-1-0.4-1-1s0.4-1,1-1h5.1c0.6,0,1,0.4,1,1S223.3,268.4,222.7,268.4z"/>
			<path class="st2" d="M214,268.4h-4.3c-0.6,0-1-0.4-1-1v-4.3c0-0.6,0.4-1,1-1s1,0.4,1,1v3.3h3.3c0.6,0,1,0.4,1,1
				S214.6,268.4,214,268.4z"/>
			<path class="st2" d="M209.7,256.8c-0.6,0-1-0.4-1-1v-10.3c0-0.6,0.4-1,1-1s1,0.4,1,1v10.3C210.7,256.4,210.3,256.8,209.7,256.8z
				 M209.7,236.3c-0.6,0-1-0.4-1-1v-5.1c0-0.6,0.4-1,1-1s1,0.4,1,1v5.1C210.7,235.8,210.3,236.3,209.7,236.3z"/>
			<path class="st2" d="M209.7,227.5c-0.6,0-1-0.4-1-1v-4.3c0-0.6,0.4-1,1-1h4.3c0.6,0,1,0.4,1,1s-0.4,1-1,1h-3.3v3.3
				C210.7,227.1,210.3,227.5,209.7,227.5z"/>
			<path class="st2" d="M247,223.3h-5.1c-0.6,0-1-0.4-1-1s0.4-1,1-1h5.1c0.6,0,1,0.4,1,1S247.5,223.3,247,223.3z M231.6,223.3h-10.3
				c-0.6,0-1-0.4-1-1s0.4-1,1-1h10.3c0.6,0,1,0.4,1,1S232.2,223.3,231.6,223.3z"/>
			<path class="st2" d="M254.9,227.5c-0.6,0-1-0.4-1-1v-3.3h-3.3c-0.6,0-1-0.4-1-1s0.4-1,1-1h4.3c0.6,0,1,0.4,1,1v4.3
				C255.9,227.1,255.4,227.5,254.9,227.5z"/>
			<path class="st2" d="M254.9,260.5c-0.6,0-1-0.4-1-1v-5.1c0-0.6,0.4-1,1-1s1,0.4,1,1v5.1C255.9,260.1,255.4,260.5,254.9,260.5z
				 M254.9,245.2c-0.6,0-1-0.4-1-1v-10.3c0-0.6,0.4-1,1-1s1,0.4,1,1v10.3C255.9,244.7,255.4,245.2,254.9,245.2z"/>
		</g>
		<rect x="271.2" y="222.3" class="st3" width="45.2" height="45.2"/>
		<path class="st2" d="M180,278h-17.5c-0.6,0-1-0.4-1-1s0.4-1,1-1H180c0.6,0,1,0.4,1,1S180.6,278,180,278z"/>
		<path class="st2" d="M241.1,278h-17.5c-0.6,0-1-0.4-1-1s0.4-1,1-1h17.5c0.6,0,1,0.4,1,1S241.6,278,241.1,278z"/>
		<path class="st2" d="M302.5,278H285c-0.6,0-1-0.4-1-1s0.4-1,1-1h17.5c0.6,0,1,0.4,1,1S303.1,278,302.5,278z"/>
		<g>
			<path class="st2" d="M193.8,288.4h-47c-0.6,0-1-0.4-1-1s0.4-1,1-1h47c0.6,0,1,0.4,1,1S194.4,288.4,193.8,288.4z"/>
			<path class="st2" d="M193.8,294.8h-47c-0.6,0-1-0.4-1-1s0.4-1,1-1h47c0.6,0,1,0.4,1,1S194.4,294.8,193.8,294.8z"/>
			<path class="st2" d="M193.8,301.2h-47c-0.6,0-1-0.4-1-1s0.4-1,1-1h47c0.6,0,1,0.4,1,1S194.4,301.2,193.8,301.2z"/>
		</g>
		<g>
			<path class="st2" d="M256,288.4h-47c-0.6,0-1-0.4-1-1s0.4-1,1-1h47c0.6,0,1,0.4,1,1S256.5,288.4,256,288.4z"/>
			<path class="st2" d="M256,294.8h-47c-0.6,0-1-0.4-1-1s0.4-1,1-1h47c0.6,0,1,0.4,1,1S256.5,294.8,256,294.8z"/>
			<path class="st2" d="M256,301.2h-47c-0.6,0-1-0.4-1-1s0.4-1,1-1h47c0.6,0,1,0.4,1,1S256.5,301.2,256,301.2z"/>
		</g>
		<g>
			<path class="st2" d="M317.2,288.4h-47c-0.6,0-1-0.4-1-1s0.4-1,1-1h47c0.6,0,1,0.4,1,1S317.8,288.4,317.2,288.4z"/>
			<path class="st2" d="M317.2,294.8h-47c-0.6,0-1-0.4-1-1s0.4-1,1-1h47c0.6,0,1,0.4,1,1S317.8,294.8,317.2,294.8z"/>
			<path class="st2" d="M317.2,301.2h-47c-0.6,0-1-0.4-1-1s0.4-1,1-1h47c0.6,0,1,0.4,1,1S317.8,301.2,317.2,301.2z"/>
		</g>
		<circle cx="232.3" cy="244.9" r="2"/>
	</g>
	<g>
		<rect x="13.5" y="251.4" class="st1" width="66.8" height="97.1"/>
		<g>
			<path class="st2" d="M70.4,323.5h-47c-0.6,0-1-0.4-1-1s0.4-1,1-1h47c0.6,0,1,0.4,1,1S70.9,323.5,70.4,323.5z"/>
			<path class="st2" d="M70.4,329.9h-47c-0.6,0-1-0.4-1-1s0.4-1,1-1h47c0.6,0,1,0.4,1,1S70.9,329.9,70.4,329.9z"/>
			<path class="st2" d="M70.4,336.3h-47c-0.6,0-1-0.4-1-1s0.4-1,1-1h47c0.6,0,1,0.4,1,1S70.9,336.3,70.4,336.3z"/>
		</g>
		<path class="st3" d="M84.5,234.2H9.3c-5.2,0-9.3,4.2-9.3,9.3v117.5c0,5.2,4.2,9.3,9.3,9.3h75.1c5.2,0,9.3-4.2,9.3-9.3V243.6
			C93.8,238.4,89.6,234.2,84.5,234.2z M38,238.6h18.8c1.1,0,2,0.9,2,2s-0.9,2-2,2H38c-1.1,0-2-0.9-2-2S36.9,238.6,38,238.6z
			 M46.9,364.9c-1.6,0-3-1.3-3-3c0-1.6,1.3-3,3-3c1.6,0,3,1.3,3,3C49.9,363.6,48.5,364.9,46.9,364.9z M84.9,353.2h-76V246.7h76
			V353.2z"/>
		<g>
			<circle class="st5" cx="46.9" cy="284.4" r="2"/>
			<g>
				<path class="st5" d="M69.4,308h-4.3c-0.6,0-1-0.4-1-1s0.4-1,1-1h3.3v-3.3c0-0.6,0.4-1,1-1s1,0.4,1,1v4.3
					C70.4,307.5,70,308,69.4,308z"/>
				<path class="st5" d="M57.9,308H47.6c-0.6,0-1-0.4-1-1s0.4-1,1-1h10.3c0.6,0,1,0.4,1,1S58.4,308,57.9,308z M37.3,308h-5.1
					c-0.6,0-1-0.4-1-1s0.4-1,1-1h5.1c0.6,0,1,0.4,1,1S37.8,308,37.3,308z"/>
				<path class="st5" d="M28.6,308h-4.3c-0.6,0-1-0.4-1-1v-4.3c0-0.6,0.4-1,1-1s1,0.4,1,1v3.3h3.3c0.6,0,1,0.4,1,1
					S29.1,308,28.6,308z"/>
				<path class="st5" d="M24.3,296.4c-0.6,0-1-0.4-1-1v-10.3c0-0.6,0.4-1,1-1s1,0.4,1,1v10.3C25.3,295.9,24.8,296.4,24.3,296.4z
					 M24.3,275.8c-0.6,0-1-0.4-1-1v-5.1c0-0.6,0.4-1,1-1s1,0.4,1,1v5.1C25.3,275.3,24.8,275.8,24.3,275.8z"/>
				<path class="st5" d="M24.3,267.1c-0.6,0-1-0.4-1-1v-4.3c0-0.6,0.4-1,1-1h4.3c0.6,0,1,0.4,1,1s-0.4,1-1,1h-3.3v3.3
					C25.3,266.6,24.8,267.1,24.3,267.1z"/>
				<path class="st5" d="M61.5,262.8h-5.1c-0.6,0-1-0.4-1-1s0.4-1,1-1h5.1c0.6,0,1,0.4,1,1S62.1,262.8,61.5,262.8z M46.2,262.8H35.9
					c-0.6,0-1-0.4-1-1s0.4-1,1-1h10.3c0.6,0,1,0.4,1,1S46.7,262.8,46.2,262.8z"/>
				<path class="st5" d="M69.4,267.1c-0.6,0-1-0.4-1-1v-3.3h-3.3c-0.6,0-1-0.4-1-1s0.4-1,1-1h4.3c0.6,0,1,0.4,1,1v4.3
					C70.4,266.6,70,267.1,69.4,267.1z"/>
				<path class="st5" d="M69.4,300c-0.6,0-1-0.4-1-1V294c0-0.6,0.4-1,1-1s1,0.4,1,1v5.1C70.4,299.6,70,300,69.4,300z M69.4,284.7
					c-0.6,0-1-0.4-1-1v-10.3c0-0.6,0.4-1,1-1s1,0.4,1,1v10.3C70.4,284.2,70,284.7,69.4,284.7z"/>
			</g>
		</g>
	</g>
	<path class="st2" d="M243.9,122.5h-45.1c-0.4,0-0.8-0.3-1-0.7c-0.2-0.4-0.1-0.9,0.2-1.2L220.4,95c0.2-0.2,0.5-0.4,0.8-0.4
		c0,0,0,0,0,0c0.3,0,0.6,0.1,0.8,0.4l22.7,25.6c0.3,0.3,0.4,0.8,0.2,1.2S244.4,122.5,243.9,122.5z M201.3,120.2h40.2l-20.2-22.8
		L201.3,120.2z"/>
	<rect x="271" y="39.5" class="st3" width="48.2" height="19.2"/>
	<g>
		<path class="st1" d="M274.6,59.3c-0.5,0-1-0.2-1.3-0.6c-0.7-0.7-0.7-2,0-2.7l16.4-16.4c0.7-0.7,2-0.7,2.7,0c0.7,0.7,0.7,2,0,2.7
			l-16.4,16.4C275.6,59.1,275.1,59.3,274.6,59.3z"/>
		<path class="st1" d="M287,59.3c-0.5,0-1-0.2-1.3-0.6c-0.7-0.7-0.7-2,0-2.7L302,39.6c0.7-0.7,2-0.7,2.7,0c0.7,0.7,0.7,2,0,2.7
			l-16.4,16.4C287.9,59.1,287.4,59.3,287,59.3z"/>
		<path class="st1" d="M299.3,59.3c-0.5,0-1-0.2-1.3-0.6c-0.7-0.7-0.7-2,0-2.7l16.4-16.4c0.7-0.7,2-0.7,2.7,0c0.7,0.7,0.7,2,0,2.7
			l-16.4,16.4C300.3,59.1,299.8,59.3,299.3,59.3z"/>
	</g>
	<path class="st2" d="M319.3,59.9H271c-0.6,0-1.1-0.5-1.1-1.1V39.5c0-0.6,0.5-1.1,1.1-1.1h48.2c0.6,0,1.1,0.5,1.1,1.1v19.2
		C320.4,59.4,319.9,59.9,319.3,59.9z M272.2,57.6h46v-17h-46V57.6z"/>
	<path class="st2" d="M311.6,172.2h-32c-0.6,0-1.1-0.5-1.1-1.1V58.8c0-0.6,0.5-1.1,1.1-1.1h32c0.6,0,1.1,0.5,1.1,1.1v112.4
		C312.7,171.7,312.2,172.2,311.6,172.2z M280.7,170h29.8V59.9h-29.8V170z"/>
	<path class="st2" d="M325.6,172.2h-59c-0.6,0-1.1-0.5-1.1-1.1s0.5-1.1,1.1-1.1h59c0.6,0,1.1,0.5,1.1,1.1S326.2,172.2,325.6,172.2z"
		/>
	<path class="st2" d="M366.6,40.7H196.2c-0.6,0-1.1-0.5-1.1-1.1s0.5-1.1,1.1-1.1h170.3c0.6,0,1.1,0.5,1.1,1.1S367.2,40.7,366.6,40.7
		z"/>
	<path class="st2" d="M231.4,59.7h-18c-0.6,0-1.1-0.5-1.1-1.1v-19c0-0.6,0.5-1.1,1.1-1.1h18c0.6,0,1.1,0.5,1.1,1.1v19
		C232.5,59.2,232,59.7,231.4,59.7z M214.5,57.4h15.8V40.7h-15.8V57.4z"/>
	<polygon class="st3" points="210.7,58.6 234.1,58.6 222.4,76.4 	"/>
	<path class="st2" d="M222.4,99.1c-5.4,0-9.7-4.4-9.7-9.7c0-5,3.8-9.1,8.6-9.7v-3.2c0-0.6,0.5-1.1,1.1-1.1s1.1,0.5,1.1,1.1v4.2
		c0,0.6-0.5,1.2-1.1,1.2c-4.1,0-7.5,3.4-7.5,7.5c0,4.1,3.4,7.5,7.5,7.5s7.5-3.4,7.5-7.5c0-0.6,0.5-1.1,1.1-1.1s1.1,0.5,1.1,1.1
		C232.1,94.7,227.7,99.1,222.4,99.1z"/>
	<path class="st2" d="M354.4,40.7H209.9c-0.5,0-1-0.4-1.1-0.9c-0.1-0.5,0.2-1,0.6-1.3l85.3-38.4c0.3-0.2,0.7-0.1,1.1,0.1L355,38.6
		c0.4,0.3,0.6,0.8,0.5,1.3S354.9,40.7,354.4,40.7z M215.1,38.4h135.5L295,2.4L215.1,38.4z"/>
	<path class="st2" d="M295.1,40.7c-0.6,0-1.1-0.5-1.1-1.1V1.1c0-0.6,0.5-1.1,1.1-1.1s1.1,0.5,1.1,1.1v38.4
		C296.3,40.1,295.8,40.7,295.1,40.7z"/>
	<path class="st2" d="M311.2,172.2c-0.2,0-0.4-0.1-0.6-0.2l-30.4-18.7c-0.3-0.2-0.5-0.6-0.5-1c0-0.4,0.2-0.7,0.5-1l28.9-17.8
		l-28.9-17.8c-0.3-0.2-0.5-0.6-0.5-1c0-0.4,0.2-0.7,0.5-1l28.8-17.8l-28.8-17.8c-0.3-0.2-0.5-0.6-0.5-1s0.2-0.7,0.5-1l30.4-18.7
		c0.5-0.3,1.2-0.2,1.5,0.4c0.3,0.5,0.2,1.2-0.4,1.5L283,77.5l28.8,17.8c0.3,0.2,0.5,0.6,0.5,1s-0.2,0.7-0.5,1L283,114.9l28.8,17.8
		c0.3,0.2,0.5,0.6,0.5,1c0,0.4-0.2,0.7-0.5,1L283,152.4l28.9,17.8c0.5,0.3,0.7,1,0.4,1.5C312,172,311.6,172.2,311.2,172.2z"/>
	<rect x="196" y="117.4" class="st4" width="50.5" height="50.5"/>
	<path class="st2" d="M196,169c-0.3,0-0.6-0.1-0.8-0.3c-0.4-0.4-0.4-1.1,0-1.6l50.5-50.5c0.4-0.4,1.1-0.4,1.6,0
		c0.4,0.4,0.4,1.1,0,1.6l-50.5,50.5C196.6,168.9,196.3,169,196,169z"/>
	<path class="st2" d="M246.5,169c-0.3,0-0.6-0.1-0.8-0.3l-51.1-51.1c-0.4-0.4-0.4-1.1,0-1.6c0.4-0.4,1.1-0.4,1.6,0l51.1,51.1
		c0.4,0.4,0.4,1.1,0,1.6C247.1,168.9,246.8,169,246.5,169z"/>
	<g>
		<rect x="266.5" y="172" class="st1" width="59" height="9.2"/>
	</g>
</g>
</svg>
